<svg width="147" height="147" viewBox="0 0 147 147" fill="none" xmlns="http://www.w3.org/2000/svg">
<g clip-path="url(#clip0_10_3449)">
<path d="M146.953 8.38992L147 0.155696L113.922 12.1487C101.918 4.21513 88.0073 0.0366211 73.5 0.0366211C58.9927 0.0366211 45.0825 4.21513 33.0783 12.1489L0 0.155696L0.047056 8.38992C0.113049 20.009 4.22873 28.8237 10.1641 36.2689C3.53752 47.5241 0.047056 60.334 0.047056 73.4895V114.146L4.42125 115.216C32.3475 122.052 53.3801 131.308 70.6118 144.346L74.0741 146.965L77.5365 144.346C95.1429 131.025 115.811 121.769 142.579 115.216L146.954 114.146V73.4898C146.954 60.3343 143.463 47.5244 136.836 36.2691C142.772 28.8237 146.887 20.0093 146.953 8.38992V8.38992ZM34.8019 24.9817L37.2632 23.2048C47.8565 15.5562 60.3872 11.5134 73.5 11.5134C86.6128 11.5134 99.1435 15.5562 109.737 23.2048L112.198 24.9817L134.287 16.9728C131.068 28.3577 121.714 36.1119 111.197 44.8299C101.282 53.0492 91.033 61.5485 84.5498 74.1458L73.4997 93.0886L62.4496 74.1458C55.9665 61.5482 45.7172 53.0492 35.8021 44.8299C25.286 36.1122 15.9319 28.358 12.7126 16.973L34.8019 24.9817ZM89.629 76.9685L89.5679 76.933L89.6328 76.966L89.629 76.9685ZM100.717 70.4361C102.037 71.6205 103.782 72.3418 105.696 72.3418C109.78 72.3418 113.096 69.0588 113.153 64.9879C113.673 66.257 113.957 67.6162 113.957 68.9989C113.957 75.1658 108.728 80.3758 102.54 80.3758C100.033 80.3758 97.5843 79.4424 95.6054 77.8253C97.0905 75.2031 98.817 72.7533 100.717 70.4361ZM33.8467 64.9882C33.9038 69.0591 37.2196 72.3421 41.304 72.3421C43.2175 72.3421 44.9623 71.6208 46.283 70.4364C48.183 72.7536 49.9095 75.2031 51.3946 77.8256C49.4157 79.4427 46.967 80.3761 44.4604 80.3761C38.2717 80.3761 33.0433 75.1661 33.0433 68.9992C33.0433 67.6162 33.3268 66.2573 33.8467 64.9882V64.9882ZM57.3673 76.966L57.4321 76.933L57.3713 76.9685L57.3673 76.966ZM135.476 105.176C110.9 111.61 91.1856 120.429 74.0698 132.651C57.1833 120.648 37.1022 111.828 11.5238 105.172V73.4898C11.5238 63.5163 13.8996 53.7817 18.4336 45.0244C21.5235 47.8859 24.7819 50.6014 28.0238 53.2896C23.9564 57.4452 21.5663 63.0334 21.5663 68.9989C21.5663 75.0545 23.9667 80.7824 28.3254 85.127C32.6766 89.4642 38.4069 91.8529 44.4604 91.8529C49.0002 91.8529 53.4246 90.4022 57.1492 87.8365L73.5 115.867L89.8508 87.8365C93.5754 90.4022 97.9998 91.8529 102.54 91.8529C108.593 91.8529 114.323 89.4642 118.675 85.127C123.033 80.7824 125.434 75.0547 125.434 68.9989C125.434 63.0334 123.044 57.4452 118.976 53.2896C122.218 50.6014 125.476 47.8859 128.566 45.0244C133.1 53.7814 135.476 63.5163 135.476 73.4898V105.176ZM45.4268 31.5059C49.0547 29.0719 52.9406 27.1391 57.0083 25.7355C62.6367 30.0773 68.117 35.1524 73.5 41.0072C78.883 35.1524 84.3633 30.077 89.9917 25.7355C94.0595 27.1391 97.9453 29.0719 101.573 31.5059C93.4253 37.0645 85.5877 44.308 77.8739 53.3895L73.5 58.539L69.1261 53.3895C61.4124 44.308 53.5747 37.0645 45.4268 31.5059V31.5059Z" fill="white"/>
</g>
<defs>
<clipPath id="clip0_10_3449">
<rect width="147" height="147" fill="white"/>
</clipPath>
</defs>
</svg>
