<svg width="28" height="28" viewBox="0 0 28 28" fill="none" xmlns="http://www.w3.org/2000/svg">
<path fill-rule="evenodd" clip-rule="evenodd" d="M19.1549 7.54825H19.3938C22.5345 7.54825 25.0834 10.1733 25.0834 13.3933V19.8333C25.0834 23.0533 22.5345 25.6666 19.3938 25.6666H8.60634C5.46569 25.6666 2.91675 23.0533 2.91675 19.8333V13.3933C2.91675 10.1733 5.46569 7.54825 8.60634 7.54825H8.84531C8.86807 6.14825 9.40289 4.84159 10.3701 3.86159C11.3487 2.86992 12.6004 2.36825 14.0115 2.33325C16.8335 2.33325 19.1207 4.66659 19.1549 7.54825ZM11.5649 5.10992C10.9277 5.76325 10.5749 6.62659 10.5522 7.54825H17.448C17.4138 5.63492 15.889 4.08325 14.0115 4.08325C13.1353 4.08325 12.2249 4.44492 11.5649 5.10992ZM18.3242 12.0399C18.8021 12.0399 19.1776 11.6433 19.1776 11.1649V9.81158C19.1776 9.33325 18.8021 8.93658 18.3242 8.93658C17.8576 8.93658 17.4707 9.33325 17.4707 9.81158V11.1649C17.4707 11.6433 17.8576 12.0399 18.3242 12.0399ZM10.427 11.1649C10.427 11.6433 10.0515 12.0399 9.57358 12.0399C9.10703 12.0399 8.72014 11.6433 8.72014 11.1649V9.81158C8.72014 9.33325 9.10703 8.93658 9.57358 8.93658C10.0515 8.93658 10.427 9.33325 10.427 9.81158V11.1649Z" fill="#BCBCBC"/>
</svg>
