<svg width="26" height="26" viewBox="0 0 26 26" fill="none" xmlns="http://www.w3.org/2000/svg">
<path fill-rule="evenodd" clip-rule="evenodd" d="M3.7915 11.1777C3.7915 6.19446 7.95571 2.16675 12.9927 2.16675C18.044 2.16675 22.2082 6.19446 22.2082 11.1777C22.2082 13.6887 21.2949 16.02 19.7918 17.996C18.1335 20.1756 16.0897 22.0746 13.7891 23.5652C13.2626 23.9097 12.7874 23.9357 12.2095 23.5652C9.8958 22.0746 7.85193 20.1756 6.20788 17.996C4.70365 16.02 3.7915 13.6887 3.7915 11.1777ZM9.96025 11.4582C9.96025 13.1276 11.3225 14.4406 12.9927 14.4406C14.6641 14.4406 16.0394 13.1276 16.0394 11.4582C16.0394 9.80186 14.6641 8.42498 12.9927 8.42498C11.3225 8.42498 9.96025 9.80186 9.96025 11.4582Z" fill="#0373F3"/>
</svg>
