<svg width="28" height="28" viewBox="0 0 28 28" fill="none" xmlns="http://www.w3.org/2000/svg">
<path d="M10.6573 24.2355V20.6681C10.6573 19.7575 11.4009 19.0193 12.3183 19.0193H15.6715C16.112 19.0193 16.5344 19.193 16.8459 19.5022C17.1574 19.8114 17.3324 20.2308 17.3324 20.6681V24.2355C17.3296 24.6141 17.4792 24.9781 17.7478 25.2468C18.0165 25.5155 18.3821 25.6666 18.7635 25.6666H21.0512C22.1197 25.6693 23.1453 25.2499 23.9018 24.5009C24.6583 23.7518 25.0834 22.7347 25.0834 21.674V11.5113C25.0834 10.6545 24.7008 9.84173 24.0388 9.29203L16.2564 3.12177C14.9027 2.03991 12.963 2.07484 11.6497 3.20473L4.04493 9.29203C3.35161 9.82553 2.93723 10.6407 2.91675 11.5113V21.6637C2.91675 23.8744 4.72203 25.6666 6.94895 25.6666H9.18442C9.97651 25.6666 10.6202 25.0322 10.626 24.2459L10.6573 24.2355Z" fill="#BCBCBC"/>
</svg>
