<svg width="14" height="14" viewBox="0 0 14 14" fill="none" xmlns="http://www.w3.org/2000/svg">
<path fill-rule="evenodd" clip-rule="evenodd" d="M2.0415 6.01877C2.0415 3.33552 4.28377 1.16675 6.99601 1.16675C9.71591 1.16675 11.9582 3.33552 11.9582 6.01877C11.9582 7.3709 11.4664 8.6262 10.657 9.69017C9.76414 10.8638 8.6636 11.8864 7.42482 12.689C7.1413 12.8745 6.88543 12.8885 6.57427 12.689C5.32843 11.8864 4.22789 10.8638 3.34263 9.69017C2.53266 8.6262 2.0415 7.3709 2.0415 6.01877ZM5.36314 6.16985C5.36314 7.06874 6.09664 7.77572 6.99601 7.77572C7.89598 7.77572 8.63654 7.06874 8.63654 6.16985C8.63654 5.27796 7.89598 4.53657 6.99601 4.53657C6.09664 4.53657 5.36314 5.27796 5.36314 6.16985Z" fill="white"/>
</svg>
