<svg width="188" height="2" viewBox="0 0 188 2" fill="none" xmlns="http://www.w3.org/2000/svg">
<rect width="3" height="2" fill="#E7E7E7"/>
<rect x="30" width="3" height="2" fill="#E7E7E7"/>
<rect x="15" width="3" height="2" fill="#E7E7E7"/>
<rect x="45" width="3" height="2" fill="#E7E7E7"/>
<rect x="5" width="3" height="2" fill="#E7E7E7"/>
<rect x="35" width="3" height="2" fill="#E7E7E7"/>
<rect x="20" width="3" height="2" fill="#E7E7E7"/>
<rect x="50" width="3" height="2" fill="#E7E7E7"/>
<rect x="10" width="3" height="2" fill="#E7E7E7"/>
<rect x="40" width="3" height="2" fill="#E7E7E7"/>
<rect x="25" width="3" height="2" fill="#E7E7E7"/>
<rect x="55" width="3" height="2" fill="#E7E7E7"/>
<rect x="60" width="3" height="2" fill="#E7E7E7"/>
<rect x="90" width="3" height="2" fill="#E7E7E7"/>
<rect x="75" width="3" height="2" fill="#E7E7E7"/>
<rect x="105" width="3" height="2" fill="#E7E7E7"/>
<rect x="65" width="3" height="2" fill="#E7E7E7"/>
<rect x="95" width="3" height="2" fill="#E7E7E7"/>
<rect x="80" width="3" height="2" fill="#E7E7E7"/>
<rect x="110" width="3" height="2" fill="#E7E7E7"/>
<rect x="70" width="3" height="2" fill="#E7E7E7"/>
<rect x="100" width="3" height="2" fill="#E7E7E7"/>
<rect x="85" width="3" height="2" fill="#E7E7E7"/>
<rect x="115" width="3" height="2" fill="#E7E7E7"/>
<rect x="120" width="3" height="2" fill="#E7E7E7"/>
<rect x="150" width="3" height="2" fill="#E7E7E7"/>
<rect x="135" width="3" height="2" fill="#E7E7E7"/>
<rect x="165" width="3" height="2" fill="#E7E7E7"/>
<rect x="125" width="3" height="2" fill="#E7E7E7"/>
<rect x="155" width="3" height="2" fill="#E7E7E7"/>
<rect x="140" width="3" height="2" fill="#E7E7E7"/>
<rect x="170" width="3" height="2" fill="#E7E7E7"/>
<rect x="130" width="3" height="2" fill="#E7E7E7"/>
<rect x="160" width="3" height="2" fill="#E7E7E7"/>
<rect x="145" width="3" height="2" fill="#E7E7E7"/>
<rect x="175" width="3" height="2" fill="#E7E7E7"/>
<rect x="180" width="3" height="2" fill="#E7E7E7"/>
<rect x="185" width="3" height="2" fill="#E7E7E7"/>
</svg>
