<svg width="28" height="28" viewBox="0 0 28 28" fill="none" xmlns="http://www.w3.org/2000/svg">
<path fill-rule="evenodd" clip-rule="evenodd" d="M2.33325 14.0002C2.33325 7.56016 7.54825 2.3335 13.9999 2.3335C20.4399 2.3335 25.6666 7.56016 25.6666 14.0002C25.6666 20.4518 20.4399 25.6668 13.9999 25.6668C7.54825 25.6668 2.33325 20.4518 2.33325 14.0002ZM16.6016 16.1352L18.4916 10.1618C18.6199 9.7535 18.2466 9.3685 17.8383 9.49683L11.8649 11.3635C11.6199 11.4452 11.4216 11.6318 11.3516 11.8768L9.48492 17.8618C9.35659 18.2585 9.74159 18.6435 10.1383 18.5152L16.0883 16.6485C16.3333 16.5785 16.5316 16.3802 16.6016 16.1352Z" fill="#BCBCBC"/>
</svg>
