<svg width="34" height="34" viewBox="0 0 34 34" fill="none" xmlns="http://www.w3.org/2000/svg">
<path fill-rule="evenodd" clip-rule="evenodd" d="M15.3496 17.0094L15.3518 17.511C15.369 19.5007 15.489 21.2759 15.6958 22.4009C15.6958 22.4211 15.9214 23.5369 16.0652 23.9083C16.2908 24.4451 16.6988 24.9008 17.2103 25.1895C17.6199 25.3954 18.0495 25.5 18.4992 25.5C18.8527 25.4836 19.4358 25.3057 19.8519 25.1566L20.1977 25.024C22.488 24.1143 26.8662 21.1415 28.543 19.3236L28.6666 19.1965L29.2184 18.6011C29.5661 18.1454 29.75 17.5883 29.75 16.9891C29.75 16.4523 29.5862 15.9155 29.2586 15.4816C29.1605 15.3411 29.0025 15.1608 28.8619 15.0084L28.3248 14.4463C26.4769 12.5739 22.4756 9.94759 20.4017 9.07738C20.4017 9.05866 19.1128 8.52029 18.4992 8.5L18.4173 8.5C17.4761 8.5 16.5968 9.03681 16.1471 9.90444C16.0242 10.1416 15.9064 10.6063 15.8167 11.0143L15.6556 11.7848C15.4717 13.0239 15.3496 14.9245 15.3496 17.0094ZM6.37961 14.849C5.20353 14.849 4.25 15.8118 4.25 16.9994C4.25 18.1869 5.20353 19.1497 6.37961 19.1497L11.6202 18.6863C12.5428 18.6863 13.2908 17.9325 13.2908 16.9994C13.2908 16.0678 12.5428 15.3125 11.6202 15.3125L6.37961 14.849Z" fill="white"/>
</svg>
