<svg width="14" height="14" viewBox="0 0 14 14" fill="none" xmlns="http://www.w3.org/2000/svg">
<path d="M10.4525 8.35349C10.3014 8.49991 10.232 8.71166 10.2664 8.91933L10.785 11.7893C10.8288 12.0326 10.7261 12.2787 10.5225 12.4193C10.323 12.5652 10.0576 12.5827 9.84001 12.466L7.25643 11.1185C7.1666 11.0707 7.06685 11.045 6.96476 11.0421H6.80668C6.75185 11.0502 6.69818 11.0677 6.64918 11.0946L4.06501 12.4485C3.93726 12.5127 3.7926 12.5354 3.65085 12.5127C3.30551 12.4473 3.0751 12.1183 3.13168 11.7712L3.65085 8.90124C3.68526 8.69183 3.61585 8.47891 3.46476 8.33016L1.35835 6.2885C1.18218 6.11758 1.12093 5.86091 1.20143 5.62933C1.2796 5.39833 1.4791 5.22975 1.72001 5.19183L4.61918 4.77125C4.83968 4.7485 5.03335 4.61433 5.13251 4.416L6.41001 1.79683C6.44035 1.7385 6.47943 1.68483 6.52668 1.63933L6.57918 1.5985C6.6066 1.56816 6.6381 1.54308 6.6731 1.52266L6.73668 1.49933L6.83585 1.4585H7.08143C7.30076 1.48125 7.49385 1.6125 7.59476 1.8085L8.88918 4.416C8.98251 4.60675 9.16393 4.73916 9.37335 4.77125L12.2725 5.19183C12.5175 5.22683 12.7223 5.396 12.8033 5.62933C12.8798 5.86325 12.8138 6.11991 12.6342 6.2885L10.4525 8.35349Z" fill="#200E32"/>
</svg>
